<?xml version="1.0" encoding="utf-8"?>
<!-- Generator: Avocode 2.6.0 - http://avocode.com -->
<svg height="67" width="53" xmlns:xlink="http://www.w3.org/1999/xlink" xmlns="http://www.w3.org/2000/svg" viewBox="0 0 53 67">
    <path fill="#e43a51" fill-rule="evenodd" d="M 52.12 32.91 C 51.76 34.18 50.6 35 49.34 35 C 49.08 35 48.81 34.97 48.54 34.89 C 47.01 34.45 46.12 32.86 46.55 31.33 C 46.6 31.16 48.94 22.38 44.42 15.17 C 41.39 10.33 35.87 7.16 28.04 5.73 C 26.47 5.45 25.43 3.95 25.71 2.38 C 26 0.81 27.49 -0.25 29.08 0.06 C 38.61 1.79 45.43 5.86 49.36 12.16 C 55.25 21.61 52.25 32.45 52.12 32.91 Z M 27.4 11.01 C 32.81 11.99 36.71 14.34 38.98 17.99 C 42.4 23.47 40.66 29.73 40.59 29.99 C 40.23 31.26 39.07 32.09 37.81 32.09 C 37.54 32.09 37.28 32.05 37.01 31.98 C 35.48 31.54 34.59 29.95 35.02 28.43 C 35.04 28.35 36.11 24.26 34.05 21.01 C 32.66 18.82 30.07 17.36 26.36 16.68 C 24.79 16.4 23.75 14.9 24.04 13.33 C 24.33 11.76 25.8 10.71 27.4 11.01 Z M 19.84 46.01 C 19.84 46.01 19.58 46.17 19.58 46.17 C 18.3 47.03 18.08 48.3 18.08 49 C 18.08 49 18.08 50.76 18.08 50.76 C 18.08 53.27 15.63 54.33 12.75 54.33 C 9.96 54.33 7.96 53.41 7.9 53.38 C 7.95 53.13 8 49.11 8 47.03 C 8 43.98 9.97 42.17 11.52 40.78 C 13.12 39.07 15.41 38.43 15.41 36.62 C 15.41 34.43 14.13 33.37 12.85 33.37 C 11.57 33.37 10.35 34.43 10.35 36.41 C 10.35 36.41 10.35 36.84 10.35 36.84 C 10.35 36.84 10.4 38.91 4.69 38.91 C 0.8 38.91 0.16 36.14 0.16 34.43 C 0.16 27.34 6.13 24.03 12.37 24.03 C 19.31 24.03 26.57 28.03 26.57 35.39 C 26.57 41.48 21.87 44.68 19.84 46.01 Z M 12.64 55.4 C 15.68 55.4 18.08 57.8 18.08 60.84 C 18.08 63.72 15.68 66.07 12.64 66.07 C 9.76 66.07 7.41 63.72 7.41 60.84 C 7.41 57.8 9.76 55.4 12.64 55.4 Z" />
</svg>