<svg xmlns="http://www.w3.org/2000/svg" xmlns:xlink="http://www.w3.org/1999/xlink" preserveAspectRatio="xMidYMid" width="109.156" height="40.031" viewBox="0 0 109.156 40.031">
  <defs>
    <style>
      .cls-1 {
        fill: #fff;
        fill-rule: evenodd;
      }
    </style>
  </defs>
  <g>
    <path d="M100.397,10.848 L109.011,20.567 L104.425,20.567 L98.222,13.579 L96.252,16.016 L96.252,20.567 L92.813,20.567 L92.813,0.012 L96.252,0.012 L96.252,10.554 L104.689,0.012 L109.070,0.012 L100.397,10.848 ZM77.658,20.567 L74.218,20.567 L74.218,10.848 L66.486,0.012 L70.690,0.012 L75.952,7.353 L81.185,0.012 L85.389,0.012 L77.658,10.848 L77.658,20.567 ZM53.005,15.987 L48.448,15.987 L48.448,20.567 L45.008,20.567 L45.008,0.012 L53.005,0.012 C53.211,0.012 55.033,0.042 56.915,0.981 C59.561,2.303 61.001,4.799 61.001,7.999 C61.001,11.230 59.561,13.726 56.915,15.047 C55.033,15.987 53.211,15.987 53.005,15.987 ZM55.386,4.035 C54.239,3.477 53.034,3.448 53.005,3.448 L48.448,3.448 L48.448,12.580 L53.005,12.580 C53.064,12.580 54.298,12.551 55.474,11.934 C56.885,11.171 57.591,9.908 57.591,7.999 C57.591,6.091 56.856,4.769 55.386,4.035 ZM29.822,15.987 L25.266,15.987 L25.266,20.567 L21.826,20.567 L21.826,0.012 L29.822,0.012 C30.028,0.012 31.851,0.042 33.732,0.981 C36.378,2.303 37.819,4.799 37.819,7.999 C37.819,11.230 36.378,13.726 33.732,15.047 C31.851,15.987 30.028,15.987 29.822,15.987 ZM32.204,4.035 C31.057,3.477 29.852,3.448 29.822,3.448 L25.266,3.448 L25.266,12.580 L29.822,12.580 C29.881,12.580 31.116,12.551 32.292,11.934 C33.703,11.171 34.409,9.908 34.409,7.999 C34.409,6.091 33.674,4.769 32.204,4.035 ZM-0.004,0.012 L13.578,0.012 L13.578,3.448 L3.435,3.448 L3.435,9.438 L11.784,9.438 L11.784,12.874 L3.435,12.874 L3.435,17.132 L13.578,17.132 L13.578,20.567 L-0.004,20.567 L-0.004,0.012 Z" class="cls-1"/>
    <path d="M105.871,34.429 C107.015,34.461 108.012,34.902 108.600,35.653 C108.960,36.126 109.156,36.681 109.156,37.253 C109.156,37.416 109.140,37.596 109.107,37.759 C108.845,39.016 107.701,39.914 106.247,40.012 C106.149,40.028 106.051,40.028 105.953,40.028 C104.564,40.028 103.420,39.277 102.978,38.053 L104.760,37.416 C104.988,38.036 105.659,38.118 105.969,38.118 L106.100,38.118 C106.590,38.085 107.146,37.840 107.244,37.383 C107.260,37.334 107.260,37.269 107.260,37.220 C107.260,37.073 107.211,36.943 107.113,36.828 C106.868,36.534 106.394,36.339 105.822,36.322 C103.861,36.273 103.142,34.853 103.142,33.923 C103.142,32.943 103.861,31.507 105.838,31.507 C107.064,31.507 107.996,32.323 108.094,32.421 L107.015,33.939 C106.884,33.825 106.247,33.400 105.838,33.400 C105.659,33.400 105.087,33.400 105.054,33.906 C105.087,34.249 105.348,34.412 105.871,34.429 ZM98.908,40.028 L97.813,38.477 L95.982,38.477 L95.982,40.028 L94.070,40.028 L94.070,31.458 L97.584,31.458 C97.682,31.458 98.483,31.474 99.300,31.882 C100.460,32.453 101.098,33.563 101.098,34.967 C101.098,36.208 100.607,37.204 99.692,37.824 L101.245,40.028 L98.908,40.028 ZM98.434,33.580 C98.025,33.368 97.584,33.368 97.584,33.368 L95.982,33.368 L95.982,36.583 L97.584,36.583 C97.617,36.583 98.074,36.567 98.483,36.339 C98.793,36.175 99.202,35.849 99.202,34.967 C99.202,34.282 98.957,33.841 98.434,33.580 ZM86.339,31.458 L91.912,31.458 L91.912,33.368 L88.251,33.368 L88.251,35.131 L91.225,35.131 L91.225,37.024 L88.251,37.024 L88.251,38.118 L91.912,38.118 L91.912,40.028 L86.339,40.028 L86.339,31.458 ZM80.192,40.028 L78.933,35.049 L77.691,40.028 L75.485,40.028 L73.344,31.458 L75.305,31.458 L76.596,36.583 L77.871,31.458 L80.012,31.458 L81.287,36.583 L82.578,31.458 L84.539,31.458 L82.398,40.028 L80.192,40.028 ZM69.274,40.012 C69.176,40.028 69.078,40.028 68.980,40.028 C67.590,40.028 66.446,39.277 66.005,38.053 L67.786,37.416 C68.015,38.036 68.685,38.118 68.996,38.118 L69.127,38.118 C69.617,38.085 70.173,37.840 70.271,37.383 C70.287,37.334 70.287,37.269 70.287,37.220 C70.287,37.073 70.238,36.943 70.140,36.828 C69.895,36.534 69.421,36.339 68.849,36.322 C66.888,36.273 66.168,34.853 66.168,33.923 C66.168,32.943 66.888,31.507 68.865,31.507 C70.091,31.507 71.022,32.323 71.120,32.421 L70.042,33.939 C69.911,33.825 69.274,33.400 68.865,33.400 C68.685,33.400 68.113,33.400 68.081,33.906 C68.113,34.249 68.375,34.412 68.898,34.429 C70.042,34.461 71.039,34.902 71.627,35.653 C71.987,36.126 72.183,36.681 72.183,37.253 C72.183,37.416 72.166,37.596 72.134,37.759 C71.872,39.016 70.728,39.914 69.274,40.012 ZM58.862,34.918 L58.862,40.028 L56.950,40.028 L56.950,31.458 L58.895,31.458 L62.196,36.567 L62.196,31.458 L64.092,31.458 L64.092,40.028 L62.147,40.028 L58.862,34.918 ZM52.552,38.461 L49.349,38.461 L48.761,40.028 L46.734,40.028 L49.937,31.392 L51.964,31.392 L55.167,40.028 L53.141,40.028 L52.552,38.461 ZM50.951,34.135 L50.052,36.551 L51.849,36.551 L50.951,34.135 ZM34.459,31.458 L40.032,31.458 L40.032,33.368 L36.371,33.368 L36.371,35.131 L39.345,35.131 L39.345,37.024 L36.371,37.024 L36.371,38.118 L40.032,38.118 L40.032,40.028 L34.459,40.028 L34.459,31.458 ZM30.405,31.458 L32.317,31.458 L32.317,40.028 L30.405,40.028 L30.405,31.458 ZM23.344,40.028 L20.140,31.392 L22.167,31.392 L24.390,37.351 L26.596,31.392 L28.623,31.392 L25.419,40.028 L23.344,40.028 ZM15.187,40.028 C12.834,40.028 10.905,38.102 10.905,35.735 C10.905,33.384 12.834,31.458 15.187,31.458 C17.557,31.458 19.485,33.384 19.485,35.735 C19.485,38.102 17.557,40.028 15.187,40.028 ZM15.187,33.368 C13.880,33.368 12.817,34.429 12.817,35.735 C12.817,37.057 13.880,38.118 15.187,38.118 C16.511,38.118 17.573,37.057 17.573,35.735 C17.573,34.429 16.511,33.368 15.187,33.368 ZM7.324,35.098 L4.644,38.918 L1.964,35.098 L1.964,40.028 L0.052,40.028 L0.052,31.458 L1.719,31.458 L4.644,35.604 L7.570,31.458 L9.237,31.458 L9.237,40.028 L7.324,40.028 L7.324,35.098 Z" class="cls-1"/>
  </g>
</svg>
