<?xml version="1.0" encoding="utf-8"?>
<!-- Generator: Adobe Illustrator 19.1.0, SVG Export Plug-In . SVG Version: 6.00 Build 0)  -->
<svg version="1.1" id="_x2014_лой_x5F_1" xmlns="http://www.w3.org/2000/svg" xmlns:xlink="http://www.w3.org/1999/xlink"
	 x="0px" y="0px" viewBox="0 0 425.6 153.5" style="enable-background:new 0 0 425.6 153.5;" xml:space="preserve">
<style type="text/css">
	.st0{fill:#FFFF07;}
	.st1{fill:#FFFFFF;}
</style>
<path class="st0" d="M30.7,144.2c-1.2,8.3,3.8,11.7,11.1,7.6l26.6-14.9c7.3-4.1,19.4-4.4,26.9-0.7l27.3,13.5
	c7.5,3.7,12.3,0,10.7-8.2l-5.9-29.9c-1.6-8.2,1.8-19.8,7.6-25.8l21.3-21.8c5.8-6,3.8-11.7-4.5-12.7l-30.3-3.6
	c-8.3-1-18.3-7.8-22.2-15.2l-14.2-27c-3.9-7.4-10-7.2-13.5,0.4L58.9,33.5c-3.5,7.6-13.1,15-21.4,16.4l-30,5.2
	c-8.2,1.4-10,7.2-3.8,12.9l22.4,20.7c6.1,5.7,10.2,17.1,9,25.4L30.7,144.2z"/>
<g>
	<g>
		<path class="st1" d="M199.9,125.4l-6.3-9H190V135h4.1v-10.6l5.8,8.2l5.8-8.2V135h4.1v-18.5h-3.6L199.9,125.4z M222.7,116.5
			c-5.1,0-9.2,4.2-9.2,9.2c0,5.1,4.2,9.3,9.2,9.3c5.1,0,9.3-4.2,9.3-9.3C231.9,120.6,227.8,116.5,222.7,116.5z M222.7,130.8
			c-2.8,0-5.1-2.3-5.1-5.1c0-2.8,2.3-5.1,5.1-5.1c2.9,0,5.2,2.3,5.2,5.1C227.8,128.6,225.5,130.8,222.7,130.8z M242.5,129.2
			l-4.8-12.9h-4.4l6.9,18.6h4.5l6.9-18.6h-4.4L242.5,129.2z M255.5,135h4.1v-18.5h-4.1V135z M264.3,135h12v-4.1h-7.9v-2.4h6.4v-4.1
			h-6.4v-3.8h7.9v-4.1h-12V135z M297.7,116.3l-6.9,18.6h4.4l1.3-3.4h6.9l1.3,3.4h4.4l-6.9-18.6H297.7z M297.9,127.5l1.9-5.2l1.9,5.2
			H297.9z M324.2,127.5l-7.1-11h-4.2V135h4.1v-11l7.1,11h4.2v-18.5h-4.1V127.5z M338.6,122.9c-1.1,0-1.7-0.4-1.8-1.1
			c0.1-1.1,1.3-1.1,1.7-1.1c0.9,0,2.3,0.9,2.5,1.2l2.3-3.3c-0.2-0.2-2.2-2-4.9-2c-4.3,0-5.8,3.1-5.8,5.2c0,2,1.6,5.1,5.8,5.2
			c1.2,0,2.3,0.5,2.8,1.1c0.2,0.2,0.3,0.5,0.3,0.8c0,0.1,0,0.2,0,0.4c-0.2,1-1.4,1.5-2.5,1.6h-0.3c-0.7,0-2.1-0.2-2.6-1.5l-3.8,1.4
			c1,2.6,3.4,4.3,6.4,4.3c0.2,0,0.4,0,0.6,0c3.1-0.2,5.6-2.2,6.2-4.9c0.1-0.4,0.1-0.7,0.1-1.1c0-1.2-0.4-2.4-1.2-3.5
			C343.3,123.9,341.1,123,338.6,122.9z M365.4,127.5l-2.8-11.1H358l-2.8,11.1l-2.8-11.1h-4.2l4.6,18.5h4.8l2.7-10.8L363,135h4.8
			l4.6-18.5h-4.2L365.4,127.5z M376.3,135h12v-4.1h-7.9v-2.4h6.4v-4.1h-6.4v-3.8h7.9v-4.1h-12V135z M408.2,124c0-3-1.4-5.4-3.9-6.7
			c-1.8-0.9-3.5-0.9-3.7-0.9H393V135h4.1v-3.3h4l2.4,3.3h5l-3.4-4.8C407.1,128.9,408.2,126.7,408.2,124z M402.5,127
			c-0.9,0.5-1.9,0.5-1.9,0.5h-3.5v-6.9h3.5c0,0,1,0,1.8,0.5c1.1,0.6,1.7,1.5,1.7,3C404.1,125.9,403.2,126.7,402.5,127z M424.4,125.5
			c-1.3-1.6-3.4-2.6-5.9-2.6c-1.1,0-1.7-0.4-1.8-1.1c0.1-1.1,1.3-1.1,1.7-1.1c0.9,0,2.3,0.9,2.5,1.2l2.3-3.3c-0.2-0.2-2.2-2-4.9-2
			c-4.3,0-5.8,3.1-5.8,5.2c0,2,1.6,5.1,5.8,5.2c1.2,0,2.3,0.5,2.8,1.1c0.2,0.2,0.3,0.5,0.3,0.8c0,0.1,0,0.2,0,0.4
			c-0.2,1-1.4,1.5-2.5,1.6h-0.3c-0.7,0-2.1-0.2-2.6-1.5l-3.8,1.4c1,2.6,3.4,4.3,6.4,4.3c0.2,0,0.4,0,0.6,0c3.1-0.2,5.6-2.2,6.2-4.9
			c0.1-0.4,0.1-0.7,0.1-1.1C425.6,127.7,425.1,126.5,424.4,125.5z M219.2,85.5h-21.9v-9.2h18v-7.4h-18V56h21.9v-7.4h-29.3V93h29.3
			V85.5z M271.5,65.8c0-6.9-3.1-12.3-8.8-15.2c-4.1-2-8-2.1-8.4-2.1H237V93h7.4v-9.9h9.8c0.4,0,4.4,0,8.4-2
			C268.4,78.2,271.5,72.8,271.5,65.8z M259.6,74.3c-2.5,1.3-5.2,1.4-5.3,1.4h-9.8V56h9.8c0.1,0,2.7,0.1,5.1,1.3
			c3.2,1.6,4.8,4.4,4.8,8.6C264.2,69.9,262.6,72.7,259.6,74.3z M321.6,65.8c0-6.9-3.1-12.3-8.8-15.2c-4.1-2-8-2.1-8.4-2.1h-17.3V93
			h7.4v-9.9h9.8c0.4,0,4.4,0,8.4-2C318.5,78.2,321.6,72.8,321.6,65.8z M309.7,74.3c-2.5,1.3-5.2,1.4-5.3,1.4h-9.8V56h9.8
			c0.1,0,2.7,0.1,5.1,1.3c3.2,1.6,4.8,4.4,4.8,8.6C314.2,69.9,312.7,72.7,309.7,74.3z M353.9,64.4l-11.4-15.9h-9.1L350.1,72v21h7.4
			V72l16.7-23.4h-9.1L353.9,64.4z M397.7,83.1l4.3-5.3L415.4,93h9.9l-18.6-21l18.7-23.4h-9.5l-18.2,22.8V48.6h-7.4V93h7.4V83.1z"/>
	</g>
</g>
</svg>
