<?xml version="1.0" encoding="utf-8"?>
<!-- Generator: Adobe Illustrator 19.1.0, SVG Export Plug-In . SVG Version: 6.00 Build 0)  -->
<svg version="1.1" id="Layer_1" xmlns="http://www.w3.org/2000/svg" xmlns:xlink="http://www.w3.org/1999/xlink" x="0px" y="0px"
	 viewBox="0 0 41 52" style="enable-background:new 0 0 41 52;" xml:space="preserve">
<style type="text/css">
	.st0{fill:#E53B51;}
</style>
<g>
	<g>
		<path class="st0" d="M39,45.1H2c-1.1,0-2,0.9-2,2.1v2.8C0,51.1,0.9,52,2,52H39c1.1,0,2-0.9,2-2.1v-2.8C41,46,40.1,45.1,39,45.1z
			 M19.1,41.3c0.4,0.4,0.9,0.6,1.4,0.6c0.5,0,1-0.2,1.4-0.6l14-14.2c0.8-0.8,0.8-2.1,0-2.9l-1.9-2c-0.8-0.8-2.1-0.8-2.9,0l-7.2,7.3
			V2.1c0-1.1-0.9-2.1-2-2.1h-2.7c-1.1,0-2,0.9-2,2.1v27.5l-7.2-7.3c-0.8-0.8-2.1-0.8-2.9,0l-1.9,2c-0.8,0.8-0.8,2.1,0,2.9L19.1,41.3
			z"/>
	</g>
</g>
</svg>
