<?xml version="1.0" encoding="utf-8"?>
<!-- Generator: Adobe Illustrator 19.1.0, SVG Export Plug-In . SVG Version: 6.00 Build 0)  -->
<svg version="1.1" id="Слой_1" xmlns="http://www.w3.org/2000/svg" xmlns:xlink="http://www.w3.org/1999/xlink" x="0px" y="0px"
	 viewBox="303.5 31 417 552.4" style="enable-background:new 303.5 31 417 552.4;" xml:space="preserve">
<style type="text/css">
	.st0{fill:none;}
	.st1{fill:#E43A51;}
</style>
<path class="st0" d="M428.3,213.4c-5.7,12.9-18.3,21.2-32.4,21.6v219.5c0,7.5,6.1,13.6,13.6,13.6h164.8c7.5,0,13.6-6.1,13.6-13.6
	V123.6c0-7.5-6.1-13.6-13.6-13.6H409.6c-7.5,0-13.6,6.1-13.6,13.6V159l13.8,6.1C428.2,173.3,436.5,195,428.3,213.4z"/>
<path class="st0" d="M375.3,172.3c-2.1-0.9-4.3-1.4-6.5-1.4c-6.3,0-12.1,3.7-14.7,9.5c-3.6,8.1,0.1,17.6,8.1,21.1l13.2,5.9v-35.1
	L375.3,172.3z"/>
<path class="st1" d="M518.3,137.4c0,2.6-2.1,4.8-4.8,4.8h-43c-2.6,0-4.8-2.1-4.8-4.8l0,0c0-2.6,2.1-4.8,4.8-4.8h43
	C516.1,132.7,518.3,134.8,518.3,137.4L518.3,137.4z"/>
<path class="st0" d="M394.4,372.9c-7.1,0-13.6,4.2-16.5,10.7c-4,9.1,0.1,19.8,9.2,23.8l8.9,4v-38.4
	C395.4,373,394.9,372.9,394.4,372.9z"/>
<path class="st0" d="M421.2,286.9c6.3,0,12.1-3.7,14.7-9.5c3.6-8.1-0.1-17.6-8.1-21.1l-16.3-7.2v35.1l3.3,1.5
	C416.8,286.5,419,286.9,421.2,286.9z"/>
<path d="M396,288.4v0.6c1.1,0.2,2.1,0.5,3.1,0.8L396,288.4z"/>
<path class="st0" d="M420.5,420.7c5.4,0,10.4-2.4,13.8-6.4h-22.9v-35.5l-9.7-4.3c-1.8-0.8-3.8-1.2-5.7-1.4v38.4l17.3,7.7
	C415.6,420.2,418,420.7,420.5,420.7z"/>
<path class="st0" d="M388.9,304.7c-5.2,0-10.1,2.3-13.5,6v24.1c1.7,1.9,3.7,3.4,6.1,4.5l14.4,6.4v-39.5
	C393.7,305.2,391.3,304.7,388.9,304.7z"/>
<path class="st0" d="M411.4,352.1V313l-15.2-6.8c-0.1,0-0.2,0-0.3-0.1v39.5l11.8,5.2C409,351.4,410.2,351.8,411.4,352.1z"/>
<path class="st0" d="M372.4,315.4c-3,6.7-1.5,14.2,3.1,19.4v-24.1C374.2,312.1,373.2,313.6,372.4,315.4z"/>
<path d="M411.4,295.2c0.4,0.2,0.8,0.2,1.2,0.4l-1.2-0.5V295.2z"/>
<path d="M402.9,291.2c-1.2-0.6-2.5-1-3.8-1.4l11.5,5.1c0.3,0.1,0.6,0.2,0.9,0.3V295L402.9,291.2z"/>
<path class="st1" d="M715.5,468.8l-16-22.1c1-13.6,4.6-61.3,7.9-93.6c3.6-35.6-6.3-54.5-7.4-56.6l-0.1-0.3
	c-0.4-0.7-40.8-68.3-58-110.5c-9.2-22.5-22.2-30.6-33.3-32.9v-29.3c0-18.8-15.3-34.1-34.1-34.1H409.6c-18.8,0-34.1,15.3-34.1,34.1
	V151c-2.2-0.4-4.4-0.7-6.7-0.7c-14.4,0-27.5,8.5-33.4,21.7c-8.2,18.4,0.1,40.1,18.6,48.2l20.3,9c-5.4,3.7-9.8,8.9-12.6,15.1
	c-7.4,16.7-1.2,36.1,13.8,45.6v1c-7.9,3.4-14.5,9.6-18.1,17.7c-7.7,17.4,0.1,37.8,17.5,45.5l0.6,0.3v7.7c-5.4,3.6-9.9,8.7-12.6,14.8
	c-6.9,15.6-1.3,33.7,12.6,42.8v34.7c0,18.8,15.3,34.1,34.1,34.1H455c13.2,20.8,27.7,36.6,43.3,46.8c10.3,6.8,18.9,9.7,24.4,10.9
	l11.8,22.1c1.2,2.6,6.8,12.7,18.7,14.6c1.2,0.2,2.3,0.3,3.6,0.3c9.1,0,18.8-5.1,20.6-6.1l129.8-69.9c5.1-2.3,11.3-8.3,13-18.5
	C722,478.4,716.2,469.7,715.5,468.8z M396,214.5v-33V159v-35.4c0-7.5,6.1-13.6,13.6-13.6h164.8c7.5,0,13.6,6.1,13.6,13.6l0.4,30.7
	c-0.1,0-0.3,0.1-0.4,0.1v3.1c-4.6,2-10.3,5.2-15.5,10.6v-8.6H411.4v67.1l-1.6-0.7c-4.4-2-9.1-3-13.9-3.1L396,214.5L396,214.5z
	 M380.4,252.8c2.6-5.8,8.3-9.5,14.7-9.5c0.3,0,0.6,0.1,0.9,0.1c1.9,0.1,3.8,0.5,5.6,1.3l9.9,4.4l16.3,7.2
	c8.1,3.6,11.7,13.1,8.1,21.1c-2.6,5.8-8.3,9.5-14.7,9.5c-2.2,0-4.4-0.5-6.5-1.4l-3.3-1.5l-15.5-6.9l-7.4-3.3
	C380.5,270.3,376.8,260.8,380.4,252.8z M362.2,201.6c-8.1-3.6-11.7-13.1-8.1-21.1c2.6-5.8,8.3-9.5,14.7-9.5c2.2,0,4.4,0.5,6.5,1.4
	l0.2,0.1v35.1L362.2,201.6z M372.4,315.4c0.8-1.8,1.8-3.3,3.1-4.7c3.4-3.8,8.2-6,13.5-6c2.4,0,4.8,0.5,7,1.5c0.1,0,0.2,0,0.3,0.1
	l15.2,6.8l11,4.9c4.4,2,7.8,5.5,9.5,10c1.7,4.5,1.6,9.4-0.4,13.8c-2.9,6.5-9.4,10.7-16.5,10.7c-1.2,0-2.4-0.1-3.6-0.4
	c-1.3-0.3-2.5-0.7-3.7-1.2l-11.8-5.2l-14.4-6.4c-2.4-1.1-4.4-2.6-6.1-4.5C370.9,329.6,369.4,322.1,372.4,315.4z M377.8,383.7
	c2.9-6.5,9.4-10.7,16.5-10.7c0.5,0,1.1,0.1,1.6,0.2c2,0.2,3.9,0.6,5.7,1.4l9.7,4.3l16.5,7.3c9.1,4,13.2,14.8,9.2,23.9
	c-0.7,1.6-1.6,3.1-2.7,4.4c-3.4,4-8.4,6.4-13.8,6.4c-2.5,0-5-0.5-7.3-1.5l-17.3-7.7l-8.9-4C377.9,403.5,373.8,392.8,377.8,383.7z
	 M443.2,468.1h-33.6c-7.5,0-13.6-6.1-13.6-13.6v-25.1l10.6,4.7c4.4,2,9.1,3,14,3c13.6,0,26-8.1,31.5-20.5c0.3-0.8,0.6-1.5,0.9-2.3
	h119.6V262.7c4.3,12.5,8.8,24,11.9,32.1c1.4,3.6,2.8,7.3,3.6,9.5v150.2c0,7.5-6.1,13.6-13.6,13.6H466.5H443.2z M699.9,485.4
	c-0.4,2.3-1.2,3.2-1.6,3.4l-130.8,70.5c-2.7,1.5-8,3.6-10.8,3.6c-0.2,0-0.3,0-0.3,0c-1.5-0.2-2.9-2.2-3.4-3.2l-14.7-27.5l-2.6-5.6
	l-6.2,0.1c-1.7-0.2-23.7-3.1-49.7-38.2h94.5c18.8,0,34.1-15.3,34.1-34.1V307.1c1.2-3.4-0.2-7.3-5-19.6c-6.2-16-17.6-45.7-22.3-68.2
	c-3-14.4-1.9-25.8,3.4-33.6c2.5-3.8,5.7-6.2,8.5-7.9c4-2.1,10-4.5,15.1-3.4c5.7,2.8,10.6,9.2,14.7,19.1
	c17.4,42.8,56.1,107.8,59.3,113.1c0.7,1.4,7.7,16.5,4.9,44.5c-3.9,38-8.2,97.3-8.2,97.9l-0.3,3.7l20.1,27.7
	C699.2,481.4,700.2,483.7,699.9,485.4z"/>
<path class="st1" d="M378.8,526.5c-0.6,0-1.2-0.1-1.8-0.2c-15.7-3.5-26.9-10.8-33.2-21.8c-9.4-16.4-3.7-34.6-3.4-35.4
	c1.4-4.4,6.2-6.9,10.7-5.4c4.4,1.4,6.9,6.2,5.5,10.6c-0.1,0.3-3.6,12.1,2.1,21.9c3.8,6.6,11.2,11.1,22,13.5c4.6,1,7.5,5.5,6.5,10.1
	C386.2,523.8,382.7,526.5,378.8,526.5z"/>
<path class="st1" d="M372.7,558.4c-0.6,0-1.2-0.1-1.8-0.2c-27.7-6.1-47.3-18.8-58.1-37.7c-16.2-28.4-6.3-59.8-5.8-61.2
	c1.4-4.5,6.2-6.9,10.7-5.4c4.4,1.4,6.9,6.2,5.4,10.7c-0.2,0.5-8,26,4.5,47.7c8.4,14.5,24.2,24.4,47,29.4c4.6,1,7.5,5.5,6.5,10.1
	C380.1,555.7,376.6,558.4,372.7,558.4z"/>
<path class="st1" d="M632,125.2c-0.8,0-1.6-0.1-2.3-0.3c-4.5-1.3-7.1-5.9-5.8-10.4c0.1-0.2,3.2-12.2-2.9-21.8
	c-4.1-6.4-11.6-10.7-22.5-12.7c-4.6-0.8-7.7-5.2-6.8-9.9c0.8-4.6,5.2-7.7,9.9-6.8c15.8,2.9,27.3,9.8,33.9,20.5
	c10,16.1,4.9,34.5,4.7,35.2C639.1,122.8,635.7,125.2,632,125.2z"/>
<path class="st1" d="M665.8,133.8c-0.8,0-1.6-0.1-2.3-0.3c-4.5-1.3-7.1-6-5.8-10.5c0.1-0.5,7-26.3-6.2-47.5
	c-8.9-14.2-25-23.5-48-27.7c-4.6-0.8-7.7-5.3-6.8-9.9c0.8-4.6,5.2-7.7,9.9-6.8c27.9,5.1,47.9,17,59.4,35.6
	c17.3,27.7,8.5,59.6,8.1,60.9C672.9,131.3,669.5,133.8,665.8,133.8z"/>
<path class="st1" d="M492,457.7c-9,0-16.4-7.3-16.4-16.4c0-9,7.3-16.4,16.4-16.4c9,0,16.4,7.3,16.4,16.4
	C508.4,450.4,501,457.7,492,457.7z M492,431.1c-5.6,0-10.2,4.6-10.2,10.2c0,5.6,4.6,10.2,10.2,10.2s10.2-4.6,10.2-10.2
	C502.2,435.7,497.6,431.1,492,431.1z"/>
</svg>
