<svg xmlns="http://www.w3.org/2000/svg" width="39" height="26" viewBox="0 0 39 26">
  <defs>
    <style>
      .cls-1 {
        fill: #fff600;
        fill-rule: evenodd;
      }
    </style>
  </defs>
  <path id="Фигура_3" data-name="Фигура 3" class="cls-1" d="M528.465,3123.17a1.086,1.086,0,0,1-.028.33l-2.406,9.53a1.089,1.089,0,0,1-1.055.82l-14.434.07H496.1a1.093,1.093,0,0,1-1.061-.82l-2.406-9.57a1.086,1.086,0,0,1-.029-0.33,2.288,2.288,0,1,1,2.148-.41l3.011,3a4.106,4.106,0,0,0,6.161-.41l4.95-6.5a2.248,2.248,0,0,1-.674-1.6,2.3,2.3,0,0,1,4.594,0,2.237,2.237,0,0,1-.638,1.56c0,0.01,0,.01,0,0.01l4.913,6.51a4.112,4.112,0,0,0,3.271,1.63,4.054,4.054,0,0,0,2.887-1.19l3.031-3a2.259,2.259,0,0,1-.857-1.77,2.3,2.3,0,1,1,3.057,2.14h0Zm-2.669,14.15a1.093,1.093,0,0,0-1.093-1.09H496.419a1.093,1.093,0,0,0-1.094,1.09v2.6a1.091,1.091,0,0,0,1.094,1.08H524.7a1.091,1.091,0,0,0,1.093-1.08v-2.6Zm0,0" transform="translate(-491 -3115)"/>
</svg>
