<?xml version="1.0" encoding="utf-8"?>
<!-- Generator: Adobe Illustrator 19.1.0, SVG Export Plug-In . SVG Version: 6.00 Build 0)  -->
<svg version="1.1" id="Layer_1" xmlns="http://www.w3.org/2000/svg" xmlns:xlink="http://www.w3.org/1999/xlink" x="0px" y="0px"
	 viewBox="0 0 515.5 171.3" style="enable-background:new 0 0 515.5 171.3;" xml:space="preserve">
<style type="text/css">
	.st0{fill:none;stroke:#FFFFFF;stroke-width:4;stroke-miterlimit:10;}
	.st1{clip-path:url(#SVGID_2_);fill:url(#SVGID_3_);}
	.st2{clip-path:url(#SVGID_2_);fill:url(#SVGID_4_);}
	.st3{clip-path:url(#SVGID_2_);fill:url(#SVGID_5_);}
	.st4{clip-path:url(#SVGID_2_);fill:url(#SVGID_6_);}
	.st5{fill:#FFFFFF;}
</style>
<path class="st0" d="M513.5,146.7c0,12.5-10.1,22.6-22.6,22.6H24.6C12.1,169.3,2,159.2,2,146.7V24.6C2,12.1,12.1,2,24.6,2h466.3
	c12.5,0,22.6,10.1,22.6,22.6V146.7z"/>
<g id="PLAY">
	<defs>
		<path id="SVGID_1_" d="M112.8,75.2L89.8,61.9c0,0-42-24.3-44.5-25.7c-2.5-1.4-4.9-0.6-4.9,2.4c0,5,0,51.8,0,51.8s0,50.6,0,52.9
			c0,2.2,1.8,3.2,3.9,2C46.4,144,89.8,119,89.8,119l23.1-13.3c0,0,19.6-11.3,22.2-12.8c2.6-1.5,2.4-3.6,0.2-4.7
			S112.8,75.2,112.8,75.2z"/>
	</defs>
	<clipPath id="SVGID_2_">
		<use xlink:href="#SVGID_1_"  style="overflow:visible;"/>
	</clipPath>
	<linearGradient id="SVGID_3_" gradientUnits="userSpaceOnUse" x1="68.9316" y1="33.771" x2="68.9316" y2="147.0747">
		<stop  offset="0" style="stop-color:#2079B0"/>
		<stop  offset="0.2863" style="stop-color:#4A93B8"/>
		<stop  offset="0.767" style="stop-color:#83BEBF"/>
		<stop  offset="1" style="stop-color:#97CFBF"/>
	</linearGradient>
	<polygon class="st1" points="40.4,33.8 40.4,90.4 40.4,147.1 97.5,90.4 	"/>
	<linearGradient id="SVGID_4_" gradientUnits="userSpaceOnUse" x1="40.3647" y1="61.8913" x2="112.8442" y2="61.8913">
		<stop  offset="0" style="stop-color:#5ABCAB"/>
		<stop  offset="1" style="stop-color:#E6E99A"/>
	</linearGradient>
	<polygon class="st2" points="112.8,75.2 89.8,61.9 40.4,33.4 40.4,33.8 97.5,90.4 	"/>
	<linearGradient id="SVGID_5_" gradientUnits="userSpaceOnUse" x1="76.604" y1="90.4238" x2="76.604" y2="147.4858">
		<stop  offset="0" style="stop-color:#E53432"/>
		<stop  offset="0.1668" style="stop-color:#D73948"/>
		<stop  offset="0.5748" style="stop-color:#B33F72"/>
		<stop  offset="0.8619" style="stop-color:#9A4189"/>
		<stop  offset="1" style="stop-color:#904192"/>
	</linearGradient>
	<polygon class="st3" points="40.4,147.1 40.4,147.5 89.8,119 112.8,105.6 97.5,90.4 	"/>
	<linearGradient id="SVGID_6_" gradientUnits="userSpaceOnUse" x1="118.3493" y1="75.207" x2="118.3493" y2="105.6387">
		<stop  offset="0" style="stop-color:#F18779"/>
		<stop  offset="0.1194" style="stop-color:#F2917A"/>
		<stop  offset="0.7128" style="stop-color:#FABC77"/>
		<stop  offset="1" style="stop-color:#FDCB73"/>
	</linearGradient>
	<polygon class="st4" points="112.8,75.2 97.5,90.4 112.8,105.6 139.2,90.4 	"/>
</g>
<g>
	<path class="st5" d="M400.1,112.6c-2.1,0-4.1-0.4-5.9-1.2c-1.8-0.8-3.3-2-4.5-3.7h-0.4c0.2,1.9,0.4,3.7,0.4,5.5v13.6h-5V79h4.1
		l0.7,4.5h0.2c1.3-1.8,2.8-3.1,4.5-3.9c1.7-0.8,3.7-1.2,5.9-1.2c4.4,0,7.7,1.5,10.1,4.5c2.4,3,3.6,7.2,3.6,12.6
		c0,5.4-1.2,9.6-3.6,12.6C407.7,111.1,404.3,112.6,400.1,112.6z M399.3,82.7c-3.4,0-5.8,0.9-7.3,2.8c-1.5,1.9-2.3,4.8-2.3,8.9v1.1
		c0,4.6,0.8,7.9,2.3,9.9c1.5,2,4,3,7.4,3c2.8,0,5.1-1.2,6.7-3.5c1.6-2.3,2.4-5.5,2.4-9.5c0-4.1-0.8-7.3-2.4-9.5
		C404.5,83.8,402.3,82.7,399.3,82.7z"/>
	<path class="st5" d="M425.3,112h-5V65.2h5V112z"/>
	<path class="st5" d="M454,112l-1-4.7h-0.2c-1.6,2.1-3.3,3.5-4.9,4.2c-1.6,0.7-3.7,1.1-6.1,1.1c-3.3,0-5.8-0.8-7.7-2.5
		c-1.9-1.7-2.8-4.1-2.8-7.2c0-6.7,5.3-10.1,16-10.5l5.6-0.2v-2c0-2.6-0.6-4.5-1.7-5.7c-1.1-1.2-2.9-1.8-5.3-1.8
		c-2.7,0-5.9,0.8-9.3,2.5l-1.5-3.8c1.6-0.9,3.4-1.6,5.3-2.1c1.9-0.5,3.9-0.8,5.8-0.8c3.9,0,6.8,0.9,8.7,2.6c1.9,1.7,2.8,4.5,2.8,8.4
		V112H454z M442.7,108.5c3.1,0,5.5-0.9,7.3-2.6c1.8-1.7,2.7-4.1,2.7-7.2v-3l-5,0.2c-4,0.1-6.8,0.8-8.6,1.9c-1.8,1.1-2.6,2.8-2.6,5.1
		c0,1.8,0.5,3.2,1.6,4.1C439.2,108,440.7,108.5,442.7,108.5z"/>
	<path class="st5" d="M460.6,79h5.3l7.2,18.8c1.6,4.3,2.6,7.4,2.9,9.3h0.2c0.3-1,0.8-2.8,1.6-5.2c0.8-2.5,3.6-10.1,8.2-22.8h5.4
		l-14.2,37.5c-1.4,3.7-3,6.3-4.9,7.9c-1.9,1.6-4.2,2.3-6.9,2.3c-1.5,0-3-0.2-4.5-0.5v-4c1.1,0.2,2.3,0.4,3.7,0.4
		c3.4,0,5.9-1.9,7.3-5.8l1.8-4.7L460.6,79z"/>
</g>
<g>
	<path class="st5" d="M307.6,82.1c1.6,1.3,4.9,4.1,4.9,9.3c0,5.1-2.9,7.5-5.8,9.8c-0.9,0.9-1.9,1.9-1.9,3.4c0,1.5,1,2.3,1.8,3
		l2.5,1.9c3,2.6,5.8,4.9,5.8,9.7c0,6.5-6.3,13-18.1,13c-10,0-14.8-4.8-14.8-9.9c0-2.5,1.2-6,5.3-8.4c4.3-2.6,10.1-3,13.2-3.2
		c-1-1.2-2.1-2.5-2.1-4.7c0-1.2,0.3-1.9,0.7-2.7c-0.8,0.1-1.5,0.1-2.2,0.1c-7.3,0-11.4-5.4-11.4-10.8c0-3.2,1.4-6.7,4.4-9.2
		c3.9-3.2,8.6-3.8,12.3-3.8h14.2l-4.4,2.5H307.6z M302.7,112.7c-0.6-0.1-0.9-0.1-1.6-0.1c-0.6,0-4.3,0.1-7.2,1.1
		c-1.5,0.5-5.9,2.2-5.9,7.1c0,4.9,4.8,8.4,12.1,8.4c6.6,0,10.1-3.2,10.1-7.4C310.2,118.3,308,116.4,302.7,112.7z M304.7,99.6
		c1.6-1.6,1.7-3.8,1.7-5c0-5-3-12.7-8.7-12.7c-1.8,0-3.7,0.9-4.8,2.3c-1.2,1.4-1.5,3.3-1.5,5.1c0,4.6,2.7,12.3,8.6,12.3
		C301.8,101.5,303.6,100.7,304.7,99.6z"/>
	<path class="st5" d="M264.2,111.6c-10.9,0-16.8-8.5-16.8-16.2c0-9,7.4-16.7,17.8-16.7c10.1,0,16.4,7.9,16.4,16.2
		C281.7,103,275.4,111.6,264.2,111.6z M272.8,106c1.7-2.2,2.1-5,2.1-7.6c0-6.1-2.9-17.6-11.4-17.6c-2.3,0-4.5,0.9-6.2,2.3
		c-2.7,2.4-3.2,5.4-3.2,8.4c0,6.8,3.4,18,11.7,18C268.5,109.5,271.2,108.2,272.8,106z"/>
	<path class="st5" d="M226.9,111.6c-10.9,0-16.8-8.5-16.8-16.2c0-9,7.4-16.7,17.8-16.7c10.1,0,16.4,7.9,16.4,16.2
		C244.4,103,238.1,111.6,226.9,111.6z M235.5,106c1.7-2.2,2.1-5,2.1-7.6c0-6.1-2.9-17.6-11.4-17.6c-2.3,0-4.5,0.9-6.2,2.3
		c-2.7,2.4-3.2,5.4-3.2,8.4c0,6.8,3.4,18,11.7,18C231.2,109.5,233.9,108.2,235.5,106z"/>
	<path class="st5" d="M204.9,110.5l-9.9,2.3c-4,0.6-7.6,1.2-11.4,1.2c-19.1,0-26.4-14-26.4-25c0-13.4,10.3-25.9,27.9-25.9
		c3.7,0,7.3,0.6,10.6,1.5c5.2,1.5,7.6,3.2,9.1,4.3l-5.7,5.5l-2.4,0.6l1.7-2.8c-2.4-2.3-6.6-6.5-14.8-6.5c-10.9,0-19.2,8.3-19.2,20.4
		c0,13,9.4,25.2,24.5,25.2c4.4,0,6.7-0.9,8.8-1.7V98.3l-10.4,0.6l5.5-3h14.7l-1.8,1.7c-0.5,0.4-0.6,0.6-0.7,1.1
		c-0.1,0.6-0.1,2.6-0.1,3.3V110.5z"/>
	<path class="st5" d="M329.5,108.5c-2.3-0.2-2.8-0.6-2.8-3.3v-0.8V66c0-0.1,0-0.3,0-0.4c0.3-2.4,1-2.8,3.1-4.1H320l-5.2,2.5h5.3v0
		l0,0v40.4v2.3c0,1.4-0.3,1.6-1.9,3.7h12.2l2.6-1.5C331.8,108.7,330.7,108.6,329.5,108.5z"/>
	<path class="st5" d="M357.6,109.1c-0.8,0.4-1.5,0.9-2.3,1.2c-2.3,1-4.6,1.3-6.7,1.3c-2.2,0-5.6-0.1-9.1-2.7c-4.9-3.4-7-9.3-7-14.5
		c0-10.6,8.7-15.9,15.7-15.9c2.5,0,5,0.6,7.1,1.9c3.4,2.3,4.3,5.2,4.8,6.8L344,93.9l-5.3,0.4c1.7,8.7,7.6,13.8,14.2,13.8
		c3.5,0,6-1.2,8.4-2.4L357.6,109.1z M351.2,88.7c1.3-0.5,2-0.9,2-1.9c0-2.7-3.1-5.9-6.8-5.9c-2.8,0-7.9,2.1-7.9,9.5
		c0,1.2,0.1,2.4,0.2,3.6L351.2,88.7z"/>
	<g>
		<path class="st5" d="M364.3,79.1v4.5h-0.6v-4.5h-1.5v-0.5h3.5v0.5H364.3z"/>
		<path class="st5" d="M370.4,83.6v-4.6h0l-1.4,4.6h-0.4l-1.4-4.6h0v4.6h-0.5v-5h0.9l1.3,4h0l1.3-4h0.9v5H370.4z"/>
	</g>
</g>
<g>
	<path class="st5" d="M171,49.6h-3.4c0-0.5-0.3-1.8-1-4h-5c-0.7,2.2-1,3.5-1,4h-3.2c0-0.3,0.8-2.6,2.5-6.9c1.7-4.3,2.5-6.7,2.5-7.1
		h4.1c0,0.4,0.8,2.7,2.3,7C170.2,46.9,171,49.2,171,49.6z M166,43.5c-1.2-3.7-1.8-5.7-1.8-6H164c0,0.3-0.6,2.3-1.9,6H166z"/>
	<path class="st5" d="M184.8,49.6h-2.7c0-0.3-1-1.8-3-4.7c-2.1-3-3.2-5-3.5-6.1h-0.2c0.2,1.6,0.3,3,0.3,4.3c0,1.8,0,3.9,0.2,6.5
		h-2.6c0.1-2.2,0.2-4.7,0.2-7.3c0-2.6-0.1-4.8-0.2-6.7h3.2c0,0.4,0.9,1.9,2.7,4.5c1.9,2.8,3,4.7,3.2,5.7h0.2c-0.2-1.6-0.3-3-0.3-4.3
		c0-1.9-0.1-3.9-0.2-6h2.7c-0.1,1.8-0.2,4-0.2,6.7C184.7,45,184.7,47.4,184.8,49.6z"/>
	<path class="st5" d="M200.4,42.1c0,2-0.7,3.8-2,5.3c-1.3,1.5-3.1,2.3-5.5,2.3c-1.1,0-2.5,0-4.4-0.1c0.1-2.2,0.1-4.6,0.1-7.3
		c0-2.6,0-4.8-0.1-6.7h1.9c0.3,0,0.8,0,1.4,0c0.6,0,1,0,1.2,0c2.6,0,4.5,0.6,5.6,1.9C199.8,38.7,200.4,40.3,200.4,42.1z M197.4,42.6
		c0-1.4-0.4-2.5-1.2-3.5c-0.8-0.9-2-1.4-3.7-1.4c-0.3,0-0.7,0-1.3,0.1c0.1,1.4,0.1,2.9,0.1,4.5c0,1.7,0,3.4,0.1,5.1
		c0.5,0.1,0.9,0.1,1.4,0.1c1.5,0,2.7-0.5,3.4-1.4C197.1,45.1,197.4,43.9,197.4,42.6z"/>
	<path class="st5" d="M214.7,49.6h-3.2c-0.8-2.5-1.5-4.1-1.9-4.7c-0.4-0.6-1.2-0.9-2.1-0.9c-0.4,0-0.8,0-1.2,0c0,1.8,0,3.7,0.1,5.6
		h-3c0.1-2.2,0.1-4.6,0.1-7.3c0-2.6,0-4.8-0.1-6.7h1.9c0.2,0,0.7,0,1.3,0c0.7,0,1.3,0,1.9,0c3.3,0,4.9,1.1,4.9,3.4
		c0,1.8-0.9,3-2.8,3.7v0.2c0.7,0.2,1.4,0.8,1.9,1.7C213.1,45.4,213.8,47.1,214.7,49.6z M210.7,39.7c0-1.4-0.9-2.1-2.8-2.1
		c-0.7,0-1.3,0.1-1.8,0.2c0.1,1.1,0.1,2.6,0.1,4.3c0.4,0,0.7,0,1,0C209.6,42.1,210.7,41.3,210.7,39.7z"/>
	<path class="st5" d="M230.1,42.3c0,2.2-0.7,4-2,5.5c-1.3,1.4-3,2.2-5,2.2c-1.9,0-3.5-0.7-4.7-2c-1.3-1.3-1.9-3-1.9-5.1
		c0-2.2,0.7-4,2-5.5c1.3-1.4,3-2.2,5-2.2c1.9,0,3.5,0.7,4.7,2C229.5,38.6,230.1,40.3,230.1,42.3z M227.2,42.6c0-1.5-0.4-2.7-1.1-3.6
		c-0.8-0.9-1.7-1.4-2.8-1.4c-1,0-1.9,0.5-2.7,1.4c-0.7,0.9-1.1,2.1-1.1,3.6c0,1.5,0.4,2.7,1.2,3.6c0.8,0.9,1.7,1.4,2.8,1.4
		c1,0,1.9-0.5,2.7-1.4C226.8,45.2,227.2,44.1,227.2,42.6z"/>
	<path class="st5" d="M236.2,49.6h-3c0.1-2.2,0.1-4.7,0.1-7.3c0-2.6,0-4.8-0.1-6.7h3c-0.1,1.8-0.1,4-0.1,6.7
		C236.1,45,236.1,47.4,236.2,49.6z"/>
	<path class="st5" d="M251.8,42.1c0,2-0.7,3.8-2,5.3c-1.3,1.5-3.1,2.3-5.5,2.3c-1.1,0-2.5,0-4.4-0.1c0.1-2.2,0.1-4.6,0.1-7.3
		c0-2.6,0-4.8-0.1-6.7h1.9c0.3,0,0.8,0,1.4,0c0.6,0,1,0,1.2,0c2.6,0,4.5,0.6,5.6,1.9C251.2,38.7,251.8,40.3,251.8,42.1z M248.8,42.6
		c0-1.4-0.4-2.5-1.2-3.5c-0.8-0.9-2-1.4-3.7-1.4c-0.3,0-0.7,0-1.3,0.1c0.1,1.4,0.1,2.9,0.1,4.5c0,1.7,0,3.4,0.1,5.1
		c0.5,0.1,0.9,0.1,1.4,0.1c1.5,0,2.7-0.5,3.4-1.4C248.5,45.1,248.8,43.9,248.8,42.6z"/>
	<path class="st5" d="M272.4,49.6H269c0-0.5-0.3-1.8-1-4h-5c-0.7,2.2-1,3.5-1,4h-3.2c0-0.3,0.8-2.6,2.5-6.9c1.7-4.3,2.5-6.7,2.5-7.1
		h4.1c0,0.4,0.8,2.7,2.3,7C271.7,46.9,272.4,49.2,272.4,49.6z M267.5,43.5c-1.2-3.7-1.8-5.7-1.8-6h-0.2c0,0.3-0.6,2.3-1.9,6H267.5z"
		/>
	<path class="st5" d="M285,39.3c0,1.7-0.6,3-1.9,3.8c-1.3,0.8-2.8,1.2-4.7,1.2c-0.3,0-0.6,0-0.7,0c0,1.3,0,3.1,0.1,5.3h-3
		c0.1-2.1,0.1-4.5,0.1-7.3c0-2.6,0-4.8-0.1-6.7h1.9c0.3,0,0.8,0,1.5,0c0.8,0,1.4,0,2,0c1.4,0,2.5,0.3,3.4,0.9
		C284.5,37.1,285,38,285,39.3z M282.2,39.8c0-1.5-1-2.3-3.1-2.3c-0.5,0-1,0.1-1.6,0.2c0.1,1.4,0.1,2.9,0.1,4.6c0.2,0,0.4,0,0.6,0
		C280.9,42.3,282.2,41.5,282.2,39.8z"/>
	<path class="st5" d="M297.8,39.3c0,1.7-0.6,3-1.9,3.8c-1.3,0.8-2.8,1.2-4.7,1.2c-0.3,0-0.6,0-0.7,0c0,1.3,0,3.1,0.1,5.3h-3
		c0.1-2.1,0.1-4.5,0.1-7.3c0-2.6,0-4.8-0.1-6.7h1.9c0.3,0,0.8,0,1.5,0c0.8,0,1.4,0,2,0c1.4,0,2.5,0.3,3.4,0.9
		C297.4,37.1,297.8,38,297.8,39.3z M295.1,39.8c0-1.5-1-2.3-3.1-2.3c-0.5,0-1,0.1-1.6,0.2c0.1,1.4,0.1,2.9,0.1,4.6
		c0.2,0,0.4,0,0.6,0C293.8,42.3,295.1,41.5,295.1,39.8z"/>
	<path class="st5" d="M318.9,42.3c0,2.2-0.7,4-2,5.5c-1.3,1.4-3,2.2-5,2.2c-1.9,0-3.5-0.7-4.7-2c-1.3-1.3-1.9-3-1.9-5.1
		c0-2.2,0.7-4,2-5.5c1.3-1.4,3-2.2,5-2.2c1.9,0,3.5,0.7,4.7,2C318.3,38.6,318.9,40.3,318.9,42.3z M315.9,42.6c0-1.5-0.4-2.7-1.1-3.6
		c-0.8-0.9-1.7-1.4-2.8-1.4c-1,0-1.9,0.5-2.7,1.4c-0.7,0.9-1.1,2.1-1.1,3.6c0,1.5,0.4,2.7,1.2,3.6c0.8,0.9,1.7,1.4,2.8,1.4
		c1,0,1.9-0.5,2.7-1.4C315.6,45.2,315.9,44.1,315.9,42.6z"/>
	<path class="st5" d="M333.5,49.6h-2.7c0-0.3-1-1.8-3-4.7c-2.1-3-3.2-5-3.5-6.1h-0.2c0.2,1.6,0.3,3,0.3,4.3c0,1.8,0,3.9,0.2,6.5
		h-2.6c0.1-2.2,0.2-4.7,0.2-7.3c0-2.6-0.1-4.8-0.2-6.7h3.2c0,0.4,0.9,1.9,2.7,4.5c1.9,2.8,3,4.7,3.2,5.7h0.2c-0.2-1.6-0.3-3-0.3-4.3
		c0-1.9,0-3.9-0.2-6h2.7c-0.1,1.8-0.2,4-0.2,6.7C333.3,45,333.4,47.4,333.5,49.6z"/>
</g>
</svg>
