<?xml version="1.0" encoding="utf-8"?>
<!-- Generator: Adobe Illustrator 19.1.0, SVG Export Plug-In . SVG Version: 6.00 Build 0)  -->
<svg version="1.1" id="Capa_1" xmlns="http://www.w3.org/2000/svg" xmlns:xlink="http://www.w3.org/1999/xlink" x="0px" y="0px"
	 viewBox="-39 14.3 919.9 546.2" style="enable-background:new -39 14.3 919.9 546.2;" xml:space="preserve">
<style type="text/css">
	.st0{fill:#FFFFFF;}
</style>
<path class="st0" d="M868,560.5H-26.1c-7.1,0-12.9-5.8-12.9-12.9v-56c0-7.1,5.8-12.9,12.9-12.9h39V27.2c0-7.1,5.8-12.9,12.9-12.9
	h790.4c7.1,0,12.9,5.8,12.9,12.9v451.4h39c7.1,0,12.9,5.8,12.9,12.9v56C880.9,554.7,875.1,560.5,868,560.5z M-24.2,545.7h890.4
	v-51.3H-24.2V545.7z M27.6,478.7h786.6V29.1H27.6V478.7z"/>
</svg>
