<?xml version="1.0" encoding="utf-8"?>
<!-- Generator: Adobe Illustrator 19.1.0, SVG Export Plug-In . SVG Version: 6.00 Build 0)  -->
<svg version="1.1" xmlns="http://www.w3.org/2000/svg" xmlns:xlink="http://www.w3.org/1999/xlink" x="0px" y="0px"
	 viewBox="0 0 225.2 224.8" style="enable-background:new 0 0 225.2 224.8;" xml:space="preserve">
<style type="text/css">
	.st0{fill:none;stroke:#603737;stroke-width:19;stroke-linecap:round;stroke-linejoin:round;stroke-miterlimit:10;}
	.st1{fill:#603737;}
	.st2{fill:#FFCDA4;}
	.st3{fill:#774444;}
	.st4{fill:none;stroke:#603737;stroke-width:6.8904;stroke-linecap:round;stroke-linejoin:round;stroke-miterlimit:10;}
	.st5{fill:#FFFFFF;}
	.st6{fill:#6E2960;}
	.st7{fill:none;stroke:#6E2960;stroke-width:5;stroke-linecap:round;stroke-linejoin:round;stroke-miterlimit:10;}
</style>
<g id="mina_2">
	<path class="st0" d="M164.4,218.4"/>
</g>
<g id="min_1">
	<path class="st0" d="M57.4,218.4"/>
</g>
<g id="cap_maimuta">
	<path class="st1" d="M63.8,91.7c0,17.9-14.3,32.4-31.9,32.4C14.3,124.2,0,109.6,0,91.7c0-17.9,14.3-32.4,31.9-32.4
		C49.5,59.3,63.8,73.8,63.8,91.7z"/>
	<path class="st2" d="M47.1,91.7c0,8.1-6.5,14.7-14.4,14.7c-8,0-14.4-6.6-14.4-14.7c0-8.1,6.5-14.7,14.4-14.7
		C40.6,77.1,47.1,83.6,47.1,91.7z"/>
	<path class="st1" d="M172.4,164.8c0,33.1-26.9,60-59.5,60l0,0c-32.6,0-59.5-26.9-59.5-60V76.2c0-33.1,26.9-60,59.5-60l0,0
		c32.6,0,59.5,26.9,59.5,60V164.8z"/>
	<path class="st3" d="M110.4,209.1c-28.5,0-52-19.8-52-44v-88c0-24.3,23.5-44,52-44c28.5,0,52,19.7,52,44v88
		C162.4,189.4,138.9,209.1,110.4,209.1z"/>
	<path class="st1" d="M225.2,91.7c0,17.9-14.3,32.4-31.9,32.4c-17.6,0-31.9-14.5-31.9-32.4c0-17.9,14.3-32.4,31.9-32.4
		C210.9,59.3,225.2,73.8,225.2,91.7z"/>
	<ellipse class="st2" cx="131.3" cy="106.4" rx="31.5" ry="32"/>
	<ellipse class="st2" cx="90.3" cy="106.4" rx="31.5" ry="32"/>
	<ellipse class="st2" cx="105.7" cy="150.7" rx="39" ry="38.6"/>
	<path class="st2" d="M208.5,91.7c0,8.1-6.5,14.7-14.4,14.7c-8,0-14.4-6.6-14.4-14.7c0-8.1,6.5-14.7,14.4-14.7
		C202,77.1,208.5,83.6,208.5,91.7z"/>
	<line class="st4" x1="141.6" y1="6.1" x2="136.5" y2="21.7"/>
	<line class="st4" x1="122" y1="3.4" x2="124.3" y2="19.8"/>
	<line class="st4" x1="157.4" y1="18.9" x2="143.5" y2="27.5"/>
	<ellipse class="st5" cx="135.1" cy="108" rx="11.4" ry="11.6"/>
	<ellipse class="st5" cx="80.4" cy="108" rx="11.4" ry="11.6"/>
	<path class="st6" d="M113.4,134.1c0,1.4-5.1,2.6-11.3,2.6c-6.2,0-11.3-1.2-11.3-2.6c0-1.4,5.1-2.6,11.3-2.6
		C108.3,131.5,113.4,132.7,113.4,134.1z"/>
	<ellipse class="st6" cx="137.7" cy="106" rx="4.2" ry="4.2"/>
	<path class="st6" d="M87.3,106c0,2.3-1.9,4.2-4.2,4.2c-2.3,0-4.2-1.9-4.2-4.2c0-2.3,1.9-4.2,4.2-4.2
		C85.4,101.8,87.3,103.7,87.3,106z"/>
	<path class="st7" d="M90.9,161.4c0,0,10,3,18,1s10-4,10-4"/>
</g>
</svg>
