<?xml version="1.0" encoding="utf-8"?>
<!-- Generator: Adobe Illustrator 19.1.0, SVG Export Plug-In . SVG Version: 6.00 Build 0)  -->
<svg version="1.1" id="Layer_1" xmlns="http://www.w3.org/2000/svg" xmlns:xlink="http://www.w3.org/1999/xlink" x="0px" y="0px"
	 viewBox="0 0 49 52" style="enable-background:new 0 0 49 52;" xml:space="preserve">
<style type="text/css">
	.st0{fill:#E53B51;}
</style>
<path class="st0" d="M39.7,33.3c-2.7,0-5.2,1.2-6.9,3.1l-14.8-7.2c0.4-1,0.6-2,0.6-3.2c0-1.1-0.2-2.2-0.6-3.2l14.8-7.2
	c1.7,1.9,4.1,3.1,6.9,3.1c5.1,0,9.3-4.2,9.3-9.4C49,4.2,44.8,0,39.7,0c-5.1,0-9.3,4.2-9.3,9.4c0,0.5,0,1,0.1,1.5l-15.7,7.6
	c-1.5-1.1-3.4-1.8-5.5-1.8C4.2,16.6,0,20.8,0,26c0,5.2,4.2,9.4,9.3,9.4c2,0,3.9-0.7,5.5-1.8l15.7,7.6c-0.1,0.5-0.1,1-0.1,1.5
	c0,5.2,4.2,9.4,9.3,9.4c5.1,0,9.3-4.2,9.3-9.4C49,37.4,44.8,33.3,39.7,33.3L39.7,33.3z M39.7,33.3"/>
</svg>
