<?xml version="1.0" encoding="utf-8"?>
<!-- Generator: Adobe Illustrator 19.1.0, SVG Export Plug-In . SVG Version: 6.00 Build 0)  -->
<svg version="1.1" id="Layer_1" xmlns="http://www.w3.org/2000/svg" xmlns:xlink="http://www.w3.org/1999/xlink" x="0px" y="0px"
	 viewBox="0 0 63.2 60.4" style="enable-background:new 0 0 63.2 60.4;" xml:space="preserve">
<style type="text/css">
	.st0{fill:#FADB4A;}
</style>
<path class="st0" d="M11.3,56.6c-0.6,3.3,1.4,4.7,4.3,3.1l10.7-5.6c2.9-1.5,7.7-1.5,10.7,0l10.7,5.6c2.9,1.5,4.9,0.1,4.3-3.1
	l-2-11.9c-0.6-3.3,0.9-7.8,3.3-10.1l8.6-8.4c2.4-2.3,1.6-4.6-1.7-5.1l-11.9-1.7C45,18.8,41.1,16,39.6,13L34.3,2.2
	c-1.5-3-3.9-3-5.3,0l-5.3,10.8c-1.5,3-5.3,5.8-8.6,6.3L3,21.1c-3.3,0.5-4,2.8-1.6,5.1l8.7,8.4c2.4,2.3,3.9,6.9,3.3,10.1L11.3,56.6z"
	/>
</svg>
